P1
81 7
100010000000000000000000000000000000000000001000000000000100000000000000000100000
100010000000000000000000000000000000000000001000000000000100000000000000000100000
100010011100100010000000000111101000100111001111000000011111001110010001011111000
101010100010100010000000001000001000101000101000100000000100010001001010000100000
110110100010101010000000000111001000101000001000100000000100011110000100000100000
100010100010110110010000000000101000101000101000100000000100010000001010000100011
100010011100100010100000001111000111000111001000100000000100001110010001000100011