P1
29 7
10001011111010000010000001110
10001010000010000010000010001
10001010000010000010000010001
11111011110010000010000010001
10001010000010000010000010001
10001010000010000010000010001
10001011111011111011111001110