P1
59 7
10000001110001110010001000000000100011111000000010001011111
10000010001010001010010000000001010000100000000011011010000
10000010001010001010100000000010001000100000000010101010000
10000010001010001011000000000011111000100000000010001011110
10000010001010001010100000000010001000100000000010001010000
10000010001010001010010000000010001000100000000010001010000
11111001110001110010001000000010001000100000000010001011111