P1
125 7
10001010001000100011111000000011110001110011111001110000000011111010001011111000000011111001110010001000000001110000100010001
10001010001001010000100000000010001010001010000010001000000000100010001010000000000010000010001010001000000010001001010010001
10001010001010001000100000000010001010001010000010000000000000100010001010000000000010000010001001010000000010000010001001010
10101011111011111000100000000010001010001011110001110000000000100011111011110000000011110010001000100000000001110011111000100
11011010001010001000100000000010001010001010000000001000000000100010001010000000000010000010001001010000000000001010001000100
10001010001010001000100000000010001010001010000010001000000000100010001010000000000010000010001010001000000010001010001000100
10001010001010001000100000000011110001110011111001110000000000100010001011111000000010000001110010001000000001110010001000100