P1
77 7
10001001110010001000000001110010001001110010001000000011111011111010001011111
10001010001010001000000010001010001010001010001000000000100010000010001000100
10001010001010001000000010000010001010000010001000000000100010000001010000100
10101010001010101000000001110010001010000011111000000000100011110000100000100
11011010001011011000000000001010001010000010001000000000100010000001010000100
10001010001010001000000010001010001010001010001000000000100010000010001000100
10001001110010001000000001110001110001110010001000000000100011111010001000100