P1
110 7
10001010000000000010000000010111100000000101000000001111000000000000000000000000000000000000000000000000000001
10001000000000000010000000010100010000000001000000001000100000000000000000000000000000000000000000000000000001
10001010000000000100011000100100010011100101001000101000100110001110001111001100011100011100011100011100011001
11111010000000000100100100100100010100010101001000101111001001010001010001010010100010101010101010100010100101
10001010000000000100100000100100010100010101000101001000001000010001001111010000100010101010101010111100100001
10001010010000001000100001000100010100110101000010001000001000010001000001010000100110100010100010100000100000
10001010100000001000100001000111100011010100100100001000001000001110001110010000011010100010100010011110100001