P1
95 7
11110000100001110010000010001000000011110011110001110001111011110000100010001010001011111011110
10001001010000100010000010001000000010001010001010001010000010001001010011011011011010000010001
10001010001000100010000001010000000010001010001010001010000010001010001010101010101010000010001
10001011111000100010000000100000000011110011110010001010011011110011111010001010001011110011110
10001010001000100010000000100000000010000010100010001010001010100010001010001010001010000010100
10001010001000100010000000100000000010000010010010001010001010010010001010001010001010000010010
11110010001001110011111000100000000010000010001001110001111010001010001010001010001011111010001