P1
307 7
1000100000000000000000000000000000000000000000011000000000000000000000000010000000000000000000000000000000000000000000000000010001000000000000000000000010000000000010000000000000000000000000011000000001100000000010000000000000000100010000000000000100000000100000100000000000100000000000000000000000000000000
1000100000000000000000000000000000000000000000100000000000000000000000000010000000000000000000000000000000000000000000000000010001000000000000000000000010000000000000000000000000000000000000100000000010000000000010000000000000000100010000000000000100000000100000000000000000100000000000000000000000000000000
0101000111001000100000001110001100011100000001111001100011100011100000001111100111000000001111001110010001001110001100000001111101111000111000000001110011110001110010011100011110000000111001111000000111100111001111100111000000011111011110001110011111000000111100100111000111100000010001001110010001000000000
0010001000101000100000010001010010100010000000100010010100010100010000000010001000100000010000010001010001010001010010000000010001000101000100000010001010001010001010100010100000000001000100100000000010001000100010001000100000000100010001010001000100000000100010101000101000100000010001010001010001000000000
0010001000101000100000010001010000111100000000100010000111100111100000000010001000100000001110011110001010011110010000000000010001000101111000000010000010001010001010100010011100000001000100100000000010001000100010001111000000000100010001010001000100000000100010101000101000100000001010010001010001000000000
0010001000101000100000010011010000100000000000100010000100000100000000000010001000100000000001010000001010010000010000000000010001000101000000000010001010001010011010100010000010000001000100100000000010001001100010001000000000000100010001010011000100000000100010101000101000100000000100010001010001011011011
0010000111000111000000001101010000011100000000100010000011100011100000000010000111000000011110001110000100001110010000000000010001000100111000000001110010001001101010100010111100000000111000100000000010000110100010000111000000000100010001001101000100000000111100101000100111100000001000001110001110011011011