P1
318 7
100010000000000000000000000000000000000000000000011000000000000000000000000001000000000000000000000000000000000000000000000000000010001000000000000000000000001000000000001000000000000000000000000000110000000001100000000010000000000000000010001000000000000010000000001000001000000000001000000000000000000000000000000000
100010000000000000000000000000000000000000000000100000000000000000000000000001000000000000000000000000000000000000000000000000000010001000000000000000000000001000000000000000000000000000000000000001000000000010000000000010000000000000000010001000000000000010000000001000000000000000001000000000000000000000000000000000
010100011100100010000000011100011000111000000001111001100011100011100000000111110011100000000011110011100100010011100011000000001111101111000111000000000111001111000111001001110001111000000001110011110000000111100111001111100111000000001111101111000111001111100000001111001001110001111000000010001001110010001000000000
001000100010100010000000100010100101000100000000100010010100010100010000000001000100010000000100000100010100010100010100100000000010001000101000100000001000101000101000101010001010000000000010001001000000000010001000100010001000100000000010001000101000100010000000001000101010001010001000000010001010001010001000000000
001000100010100010000000100010100001111000000000100010000111100111100000000001000100010000000011100111100010100111100100000000000010001000101111000000001000001000101000101010001001110000000010001001000000000010001000100010001111000000000010001000101000100010000000001000101010001010001000000001010010001010001000000000
001000100010100010000000100110100001000000000000100010000100000100000000000001000100010000000000010100000010100100000100000000000010001000101000000000001000101000101001101010001000001000000010001001000000000010001001100010001000000000000010001000101001100010000000001000101010001010001000000000100010001010001011011011
001000011100011100000000011010100000111000000000100010000011100011100000000001000011100000000111100011100001000011100100000000000010001000100111000000000111001000100110101010001011110000000001110001000000000010000110100010000111000000000010001000100110100010000000001111001010001001111000000001000001110001110011011011