P1
341 7
10001000000000000000000000000000000000000000000000011000000000000000000000000000100000000000000000000000000000000000000000000000000000100010000000000000000000000010000000000000100000000000000000000000000000011000000000011000000000100000000000000000100010000000000000100000000010000000100000000000001000000000000000000000000000000000000000000
10001000000000000000000000000000000000000000000000100000000000000000000000000000100000000000000000000000000000000000000000000000000000100010000000000000000000000010000000000000000000000000000000000000000000100000000000100000000000100000000000000000100010000000000000100000000010000000000000000000001000000000000000000000000000000000000000000
01010001110010001000000001110001110001110000000011111001110001110001110000000011111001110000000001111001110010001001110001110000000011111011110001110000000001110011110001110000100001110001111000000001110011111000000011111001110011111001110000000011111011110001110011111000000011110000100001110001111000000010001001110010001000000000000000000
00100010001010001000000010001010001010001000000000100010001010001010001000000000100010001000000010000010001010001010001010001000000000100010001010001000000010001010001010001000100010001010000000000010001000100000000000100010001000100010001000000000100010001010001000100000000010001000100010001010001000000010001010001010001000000000000000000
00100010001010001000000010001010000011110000000000100010000011110011110000000000100010001000000001110011110001010011110010000000000000100010001011110000000010000010001010001000100010001001110000000010001000100000000000100010001000100011110000000000100010001010001000100000000010001000100010001010001000000001010010001010001000000000000000000
00100010001010001000000010011010000010000000000000100010000010000010000000000000100010001000000000001010000001010010000010000000000000100010001010000000000010001010001010011000100010001000001000000010001000100000000000100010011000100010000000000000100010001010011000100000000010001000100010001010001000000000100010001010001001100001100001100
00100001110001110000000001101010000001111000000000100010000001111001111000000000100001110000000011110001111000100001111010000000000000100010001001111000000001110010001001101000100010001011110000000001110000100000000000100001101000100001111000000000100010001001101000100000000011110000100010001001111000000001000001110001110001100001100001100