P1
371 7
00100011110001110011110011111011111001111010001001110000001010001010000010001010001001110011110001110011110001110011111010001010001010001010001010001011111000000010000000000000001000000000011000000010000000100000100010000000100000000000000000000000000000000000000000000000100000000000000000000000000000000000000000100001110001110010010011111001110011111001110001110001110
01010010001010001010001010000010000010000010001000100000001010010010000011011010001010001010001010001010001010001000100010001010001010001010001010001000001000000010000000000000001000000000100000000010000000000000000010000000100000000000000000000000000000000000000000000000100000000000000000000000000000000000000001100010001010001010010010000010001010001010001010001010001
10001010001010000010001010000010000010000010001000100000001010100010000010101011001010001010001010001010001010000000100010001010001010001001010001010000010001110011110001110001111001110011111001111011110000100000100010010000100001110001110001110001110001111001110001111011111010001010001010001010001010001011111010100000010000001010010010000010000000001010001010001010001
11111011110010000010001011110011110010011011111000100000001011000010000010001010101010001011110010001011110001110000100010001010001010101000100000100000100010001010001010001010001010001000100010001010001000100000100010100000100010101010001010001010001010001010001010000000100010001010001010001001010010001000010000100000100001110001111011110011110000010001110001111010001
10001010001010000010001010000010000010001010001000100000001010100010000010001010011010001010000010101010100000001000100010001010001011011001010000100001000010001010001010000010001011110000100001111010001000100000100011000000100010101010001010001010001010001010000001110000100010001001010010101000100001010000100000100001000000001000010000001010001000010010001000001010001
10001010001010001010001010000010000010001010001000100010001010010010000010001010001010001010000001110010010010001000100010001001010010001010001000100010000010011010001010001010001010000000100000001010001000100010100010100000100010001010001010001011110001111010000000001000100010001001010011011001010000100001000000100010000010001000010010001010001000100010001010001010001
10001011110001110011110011111010000001110010001001110001110010001011111010001010001001110010000000011010001001110000100001110000100010001010001000100011111001101011110001110001111001111000100001110010001000100001000010010000010010001010001001110010000000001010000011110000100001110000100010001010001001000011111011111011111001110000010001110001110000100001110001110001110