P1
179 7
00000000000001110000100001110001010001110000000000100001100000000000000000000000000000000000000000000001000000000001110001110000011011000000001010000000010001000000010001010000100
00000000000010001000100010001001010010101001001001010010010000100000100000100000000000000000100000000000100000000001000000010000100000100000010001000000100000100000010001010000100
00000000000010001000100000001011111010100000010001010010100010101000100000100000000000000000100011111000010001101001000000010000100000100000100000100001000000010000100001010000100
00000000000000010000100001101001010001110000100000000001000001110000000000000001110000000011111000000000000010110001000000010001000000010001000000010001000000010000100000000000000
00000000000000100000100010101011111000101001000000000010101010101000100000100000000000000000100011111000000000000001000000010000100000100000100000100001000000010000100000000000000
01100000100000000000000010101001010010101010010000000010010000100000100000100000000000000000100000000000000000000001000000010000100000100000010001000000100000100001000000000000000
01100001000000100000100001110001010001110000000000000001101000000000000001000000000011111000000000000000000000000001110001110000011011000000001010000000010001000001000000000000000